<svg width="1920" height="1080" viewBox="0 0 1920 1080" xmlns="http://www.w3.org/2000/svg"><rect width="1920" height="1080" fill="#9ee2ff"/><path d="M 0,1080 C 0,1080 0,270 0,270 C 122.46923076923076,212.57692307692307 244.93846153846152,155.15384615384613 348,176 C 451.0615384615385,196.84615384615387 534.7153846153847,295.9615384615385 655,344 C 775.2846153846153,392.0384615384615 932.1999999999998,389 1018,362 C 1103.8000000000002,335 1118.4846153846156,284.03846153846155 1223,242 C 1327.5153846153844,199.96153846153845 1521.8615384615382,166.84615384615387 1653,173 C 1784.1384615384618,179.15384615384613 1852.069230769231,224.57692307692307 1920,270 C 1920,270 1920,1080 1920,1080 Z" fill="#024269" opacity="0.15"/><path d="M 0,1080 C 0,1080 0,540 0,540 C 108.19487179487177,555.8794871794871 216.38974358974355,571.7589743589743 304,550 C 391.61025641025645,528.2410256410257 458.6358974358975,468.84358974358975 580,457 C 701.3641025641025,445.15641025641025 877.0666666666666,480.8666666666667 1011,504 C 1144.9333333333334,527.1333333333333 1237.0974358974358,537.6897435897436 1314,559 C 1390.9025641025642,580.3102564102564 1452.5435897435896,612.374358974359 1551,611 C 1649.4564102564104,609.625641025641 1784.7282051282052,574.8128205128205 1920,540 C 1920,540 1920,1080 1920,1080 Z" fill="#024269" opacity="0.3"/><path d="M 0,1080 C 0,1080 0,810 0,810 C 109.92051282051281,846.623076923077 219.84102564102562,883.2461538461539 335,888 C 450.1589743589744,892.7538461538461 570.5564102564102,865.6384615384616 670,827 C 769.4435897435898,788.3615384615384 847.9333333333332,738.2 946,749 C 1044.0666666666668,759.8 1161.7102564102565,831.5615384615385 1274,854 C 1386.2897435897435,876.4384615384615 1493.225641025641,849.5538461538462 1600,834 C 1706.774358974359,818.4461538461538 1813.3871794871795,814.2230769230769 1920,810 C 1920,810 1920,1080 1920,1080 Z" fill="#024269" opacity="0.44999999999999996"/></svg>